<svg width="58" height="58" viewBox="0 0 58 58" fill="none" xmlns="http://www.w3.org/2000/svg">
<rect width="58" height="58" rx="29" fill="#E6F6EC"/>
<rect x="7.25" y="7.25" width="43.5" height="43.5" rx="21.75" fill="#1F9D55"/>
<path d="M24.2932 36.9038C24.2932 36.7258 24.259 36.6368 24.1905 36.6368L23.718 36.8628C23.718 36.7669 23.6633 36.6984 23.5537 36.6573L23.3894 36.6368C23.2798 36.6368 23.1429 36.6847 22.9785 36.7806C22.9512 36.7121 22.9169 36.6436 22.8758 36.5752C22.8348 36.5067 22.8005 36.4451 22.7731 36.3903C22.5951 36.0479 22.4171 35.6713 22.239 35.2605C22.0747 34.836 21.9172 34.432 21.7666 34.0485C21.6296 33.6651 21.5201 33.3638 21.4379 33.1447C21.3831 32.9667 21.3215 32.6996 21.253 32.3436C21.1846 31.9875 21.1161 31.5356 21.0476 30.9878C21.1983 31.0837 21.3147 31.1316 21.3968 31.1316C21.4927 31.1316 21.5817 30.9878 21.6639 30.7002C21.705 30.755 21.7803 30.7824 21.8898 30.7824C21.972 30.7824 22.0336 30.755 22.0747 30.7002L22.4034 30.2072L22.7731 30.3305H22.7937C22.8211 30.3305 22.8484 30.3168 22.8758 30.2894C22.9032 30.262 22.9443 30.2346 22.9991 30.2072C23.1086 30.1388 23.1908 30.1045 23.2456 30.1045L23.3072 30.1251C23.6496 30.2894 23.8687 30.5907 23.9645 31.0289C24.211 32.0697 24.4575 32.5901 24.704 32.5901C24.9505 32.5901 25.2381 32.3299 25.5668 31.8095C25.7311 31.5493 25.8955 31.248 26.0598 30.9057C26.2378 30.5633 26.4158 30.1799 26.5939 29.7553C26.6213 29.9197 26.6487 30.0018 26.676 30.0018C26.7445 30.0018 26.8609 29.8307 27.0253 29.4883C27.2033 29.1459 27.484 28.6735 27.8675 28.0709C28.0866 27.7012 28.3605 27.2835 28.6891 26.8179C29.0315 26.3523 29.3944 25.873 29.7778 25.38C30.1613 24.887 30.531 24.4213 30.8871 23.9831C31.2568 23.5449 31.5855 23.1683 31.8731 22.8533C32.1607 22.5384 32.3729 22.3329 32.5099 22.2371C33.0303 21.881 33.4411 21.5387 33.7424 21.21C33.7287 21.3059 33.7081 21.3949 33.6808 21.477C33.6671 21.5455 33.6602 21.5934 33.6602 21.6208C33.6602 21.6756 33.6876 21.703 33.7424 21.703L34.3175 21.4154V21.4976C34.3175 21.6071 34.3449 21.6619 34.3997 21.6619C34.4408 21.6619 34.523 21.6003 34.6462 21.477C34.7695 21.3538 34.8379 21.2648 34.8516 21.21L34.8105 21.4976L35.509 21.0867L35.3446 21.4565C35.5637 21.3059 35.7212 21.2305 35.8171 21.2305C35.8719 21.2305 35.9129 21.2648 35.9403 21.3332C35.9677 21.388 35.9814 21.4428 35.9814 21.4976C35.9814 21.5797 35.9472 21.6756 35.8787 21.7852C35.8102 21.8947 35.7212 22.0248 35.6117 22.1755C35.5295 22.285 35.3926 22.4493 35.2008 22.6685C35.0228 22.8739 34.7489 23.182 34.3792 23.5928C34.0094 23.99 33.5164 24.5446 32.9002 25.2567C32.7358 25.4347 32.4825 25.7497 32.1401 26.2016C31.7978 26.6398 31.4075 27.1534 30.9693 27.7422C30.5447 28.3174 30.1202 28.8994 29.6957 29.4883C29.2711 30.0772 28.8945 30.6112 28.5659 31.0905C28.2372 31.5562 28.0044 31.9054 27.8675 32.1382L26.5939 34.295C26.32 34.7607 26.094 35.1441 25.916 35.4454C25.738 35.733 25.601 35.9315 25.5052 36.0411C25.2998 36.2876 25.0738 36.5067 24.8273 36.6984L24.6424 36.5957L24.4781 36.6984L24.2932 36.9038Z" fill="white"/>
</svg>
