<svg width="16" height="16" viewBox="0 0 16 16" fill="none" xmlns="http://www.w3.org/2000/svg">
<path d="M8 1C6.14348 1 4.36301 1.7375 3.05025 3.05025C1.7375 4.36301 1 6.14348 1 8C1 9.85652 1.7375 11.637 3.05025 12.9497C4.36301 14.2625 6.14348 15 8 15C9.85652 15 11.637 14.2625 12.9497 12.9497C14.2625 11.637 15 9.85652 15 8C15 6.14348 14.2625 4.36301 12.9497 3.05025C11.637 1.7375 9.85652 1 8 1ZM12.9 5.2H10.84C10.6346 4.43743 10.3462 3.69968 9.98 3C11.1757 3.37891 12.206 4.15516 12.9 5.2ZM8 2.5C8.5 3.2 8.9 4.1 9.16 5.2H6.84C7.1 4.1 7.5 3.2 8 2.5ZM2.6 9.5C2.49817 9.00693 2.46452 8.50222 2.5 8C2.5 7.48 2.57 6.98 2.7 6.5H5.06C4.94241 7.49654 4.94241 8.50346 5.06 9.5H2.6ZM3.1 10.8H5.16C5.36 11.62 5.66 12.37 6.02 13C4.82428 12.6211 3.79399 11.8448 3.1 10.8ZM5.16 5.2H3.1C3.79399 4.15516 4.82428 3.37891 6.02 3C5.66 3.63 5.37 4.38 5.16 5.2ZM8 13.5C7.5 12.8 7.1 11.9 6.84 10.8H9.16C8.9 11.9 8.5 12.8 8 13.5ZM9.42 9.5H6.58C6.44785 8.50437 6.44785 7.49563 6.58 6.5H9.42C9.55215 7.49563 9.55215 8.50437 9.42 9.5ZM9.84 13C10.2 12.37 10.49 11.62 10.7 10.8H12.76C12.066 11.8448 11.0357 12.6211 9.84 13ZM11 9.5C11.1176 8.50346 11.1176 7.49654 11 6.5H13.36C13.49 6.98 13.56 7.48 13.56 8C13.56 8.52 13.49 9.02 13.36 9.5H11Z" fill="#FE0000"/>
</svg>
