<svg
              width="15"
              height="15"
              viewBox="0 0 15 15"
              fill="none"
              xmlns="http://www.w3.org/2000/svg"
            >
              <path
                d="M7.01783 0.862611C7.04704 0.803585 7.09217 0.7539 7.14813 0.719162C7.20408 0.684423 7.26863 0.666016 7.33449 0.666016C7.40035 0.666016 7.4649 0.684423 7.52086 0.719162C7.57681 0.7539 7.62194 0.803585 7.65116 0.862611L9.19116 3.98194C9.29261 4.18726 9.44237 4.36488 9.62758 4.49958C9.81278 4.63428 10.0279 4.72202 10.2545 4.75528L13.6985 5.25928C13.7637 5.26873 13.8251 5.29626 13.8755 5.33874C13.9259 5.38123 13.9634 5.43698 13.9838 5.49968C14.0042 5.56239 14.0067 5.62955 13.9909 5.69357C13.9751 5.75759 13.9417 5.81591 13.8945 5.86194L11.4038 8.28728C11.2396 8.44735 11.1167 8.64493 11.0457 8.86303C10.9748 9.08113 10.9579 9.3132 10.9965 9.53928L11.5845 12.9659C11.596 13.0312 11.589 13.0983 11.5642 13.1597C11.5394 13.2211 11.4978 13.2744 11.4442 13.3133C11.3906 13.3522 11.3271 13.3753 11.2611 13.3799C11.195 13.3845 11.129 13.3704 11.0705 13.3393L7.99183 11.7206C7.78897 11.6141 7.56328 11.5584 7.33416 11.5584C7.10504 11.5584 6.87935 11.6141 6.67649 11.7206L3.59849 13.3393C3.54005 13.3702 3.47409 13.3841 3.40813 13.3794C3.34216 13.3748 3.27884 13.3517 3.22536 13.3128C3.17187 13.2739 3.13038 13.2207 3.1056 13.1594C3.08081 13.0981 3.07373 13.0311 3.08516 12.9659L3.67249 9.53995C3.71129 9.31377 3.69448 9.08154 3.62352 8.86331C3.55255 8.64508 3.42956 8.44738 3.26516 8.28728L0.774492 5.86261C0.726888 5.81663 0.693155 5.75821 0.677134 5.69399C0.661114 5.62978 0.66345 5.56236 0.683878 5.49941C0.704306 5.43645 0.742004 5.38051 0.792677 5.33793C0.84335 5.29536 0.904961 5.26788 0.970492 5.25861L4.41383 4.75528C4.64066 4.72228 4.85609 4.63465 5.04155 4.49994C5.22701 4.36522 5.37696 4.18746 5.47849 3.98194L7.01783 0.862611Z"
                stroke="white"
                stroke-width="1.33333"
                stroke-linecap="round"
                stroke-linejoin="round"
              />
            </svg>